<svg xmlns="http://www.w3.org/2000/svg" xmlns:xlink="http://www.w3.org/1999/xlink" width="128" height="128.001" viewBox="0 0 128 128.001">
  <defs>
    <clipPath id="clip-path">
      <rect id="Rectangle_464473" data-name="Rectangle 464473" width="63.562" height="63.549" fill="#19538d"/>
    </clipPath>
  </defs>
  <g id="img25" transform="translate(-383.746 -8399.999)">
    <circle id="Ellipse_13890" data-name="Ellipse 13890" cx="64" cy="64" r="64" transform="translate(383.746 8400)" fill="#5a9ad7"/>
    <path id="Intersection_1" data-name="Intersection 1" d="M23204.689,11774.869a64,64,0,0,1,106.254-48.067l-104.787,61.753A64.213,64.213,0,0,1,23204.689,11774.869Z" transform="translate(-22820.941 -3310.872)" fill="#19538d"/>
    <circle id="Ellipse_13891" data-name="Ellipse 13891" cx="54" cy="54" r="54" transform="translate(393.746 8410)" fill="#fff"/>
    <g id="Group_1211873" data-name="Group 1211873" transform="translate(415.965 8432.226)">
      <g id="Group_1211805" data-name="Group 1211805" clip-path="url(#clip-path)">
        <path id="Path_1274441" data-name="Path 1274441" d="M92.311,87.136a1.894,1.894,0,0,0-.69-1.354A3.255,3.255,0,0,1,94.1,80.04a1.7,1.7,0,0,0,1.313-.449,1.848,1.848,0,0,0,.6-1.359V73.668a1.836,1.836,0,0,0-.6-1.347,1.719,1.719,0,0,0-1.32-.457,3.245,3.245,0,0,1-3.429-2.012,3.209,3.209,0,0,1,.951-3.731,1.9,1.9,0,0,0,.69-1.355,1.861,1.861,0,0,0-.584-1.374L88.577,60.24a1.858,1.858,0,0,0-1.374-.582,1.9,1.9,0,0,0-1.355.688,3.223,3.223,0,0,1-3.877.89,3.262,3.262,0,0,1-1.863-3.368,1.712,1.712,0,0,0-.453-1.32,1.843,1.843,0,0,0-1.355-.6H73.733a1.842,1.842,0,0,0-1.355.6,1.71,1.71,0,0,0-.451,1.32,3.252,3.252,0,0,1-5.741,2.478,1.893,1.893,0,0,0-1.355-.688,1.853,1.853,0,0,0-1.375.582L60.307,63.39a1.86,1.86,0,0,0-.583,1.371,1.9,1.9,0,0,0,.688,1.358,3.254,3.254,0,0,1-2.478,5.741,1.707,1.707,0,0,0-1.314.451,1.848,1.848,0,0,0-.6,1.358v4.564a1.843,1.843,0,0,0,.6,1.354,1.708,1.708,0,0,0,1.314.452,3.273,3.273,0,0,1,3.43,2.01,3.211,3.211,0,0,1-.951,3.733,1.9,1.9,0,0,0-.689,1.355,1.861,1.861,0,0,0,.584,1.374l3.149,3.149a1.86,1.86,0,0,0,1.377.583,1.889,1.889,0,0,0,1.353-.689,3.253,3.253,0,0,1,5.74,2.48,1.7,1.7,0,0,0,.453,1.312,1.843,1.843,0,0,0,1.354.6h0l4.657-.012a1.69,1.69,0,0,0,1.256-.572,1.744,1.744,0,0,0,.459-1.327,3.249,3.249,0,0,1,2.006-3.43,3.188,3.188,0,0,1,3.731.944,1.877,1.877,0,0,0,1.347.693,1.857,1.857,0,0,0,1.383-.581l3.149-3.15a1.862,1.862,0,0,0,.584-1.376M78.327,94.124l-4.611.064a4.946,4.946,0,0,0-3.1-5.225,5.216,5.216,0,0,0-1.959-.394,5.114,5.114,0,0,0-3.9,1.905L61.5,87.157a4.883,4.883,0,0,0,1.513-5.8,5,5,0,0,0-5.227-3.108l0-4.6a4.965,4.965,0,0,0,5.162-2.964,4.858,4.858,0,0,0-1.448-5.943l3.252-3.314a5.058,5.058,0,0,0,8.971-3.7l4.6,0a4.966,4.966,0,0,0,2.963,5.147,4.856,4.856,0,0,0,5.944-1.449l3.324,3.252a5.053,5.053,0,0,0,3.7,8.97l0,4.6a4.982,4.982,0,0,0-5.16,2.967,4.857,4.857,0,0,0,1.448,5.942l-3.257,3.316A5.02,5.02,0,0,0,81.574,88.9a4.9,4.9,0,0,0-3.247,5.222" transform="translate(-44.238 -44.182)" fill="#19538d"/>
        <path id="Path_1274442" data-name="Path 1274442" d="M234.962,1.874a6.593,6.593,0,0,0-9.877,8.679l-5.208,5.214a1.034,1.034,0,0,0-.136,1.316.852.852,0,0,0,.613.3c.027,0,.053,0,.079,0a.967.967,0,0,0,.686-.275l5.273-5.253a6.591,6.591,0,0,0,8.569-9.98m.1,3.776a4.742,4.742,0,0,1-.705,3.587,4.9,4.9,0,0,1-3.152,2.077,4.793,4.793,0,0,1-4.877-7.327,4.669,4.669,0,0,1,3.032-2.078,4.846,4.846,0,0,1,3.7.7,4.764,4.764,0,0,1,2,3.041" transform="translate(-173.394 0)" fill="#19538d"/>
        <path id="Path_1274443" data-name="Path 1274443" d="M17.085,219.6c-.188-.129-.786-.328-1.083-.035l-5.444,5.388a6.594,6.594,0,1,0-3.941,11.869,6.453,6.453,0,0,0,4.322-1.642,6.6,6.6,0,0,0,.931-8.938l5.382-5.425a.655.655,0,0,0,.16-.542,1,1,0,0,0-.327-.675M7.21,235a4.8,4.8,0,1,1,4.162-5.308A4.8,4.8,0,0,1,7.21,235" transform="translate(0 -173.278)" fill="#19538d"/>
        <path id="Path_1274444" data-name="Path 1274444" d="M222.253,220.888l-1.355-1.334a.671.671,0,0,0-.539-.168.946.946,0,0,0-.652.321.988.988,0,0,0,.045,1.2l1.234,1.242a6.529,6.529,0,1,0,1.267-1.258m4.412,10.094a4.809,4.809,0,0,1-4.184-7.836,4.881,4.881,0,0,1,6.785-.644,4.815,4.815,0,0,1-2.6,8.48" transform="translate(-173.365 -173.25)" fill="#19538d"/>
        <path id="Path_1274445" data-name="Path 1274445" d="M26.1,33.462a6.736,6.736,0,0,0,4.058-1.379l1.283,1.162a.741.741,0,0,0,.588.166.887.887,0,0,0,.613-.319.954.954,0,0,0-.007-1.13l-1.15-1.235a6.6,6.6,0,1,0-10.287.5,6.5,6.5,0,0,0,4.9,2.234m-3.882-9.389a4.815,4.815,0,0,1,8.647,1.984,4.8,4.8,0,1,1-8.647-1.984" transform="translate(-15.427 -16.009)" fill="#19538d"/>
        <path id="Path_1274446" data-name="Path 1274446" d="M123.1,111.959a10.18,10.18,0,1,0-9.029,11.173,10.123,10.123,0,0,0,9.029-11.173m-11.75-7.118a8.2,8.2,0,0,1,6.336,1.257,8.421,8.421,0,0,1,3.519,5.281,8.212,8.212,0,0,1-1.211,6.219,8.368,8.368,0,0,1-5.343,3.623,8.177,8.177,0,0,1-1.638.166,8.416,8.416,0,0,1-8.162-6.538,8.344,8.344,0,0,1,6.5-10.009" transform="translate(-81.229 -81.254)" fill="#19538d"/>
        <path id="Path_1274447" data-name="Path 1274447" d="M126.121,137.221a2.254,2.254,0,0,0,3.089-.013l5.133-5.163a2.313,2.313,0,0,0-.151-3.156,2.387,2.387,0,0,0-3.308-.111L127.594,132a2.619,2.619,0,0,0-1.74-1.148,2.329,2.329,0,0,0-1.9.543,2.447,2.447,0,0,0-.865,1.769,2.408,2.408,0,0,0,.746,1.816Zm-1.134-4.374a.581.581,0,0,1,.415-.236.571.571,0,0,1,.06,0,.547.547,0,0,1,.38.151l1.086,1.025a.991.991,0,0,0,1.448.059l3.67-3.687a.575.575,0,0,1,.44-.18.614.614,0,0,1,.437.213.652.652,0,0,1-.138.923l-4.625,4.623a.8.8,0,0,1-.542.254.54.54,0,0,1-.406-.178l-2.153-2.163a.664.664,0,0,1-.073-.8" transform="translate(-97.206 -101.214)" fill="#19538d"/>
      </g>
    </g>
  </g>
</svg>
