<svg xmlns="http://www.w3.org/2000/svg" xmlns:xlink="http://www.w3.org/1999/xlink" width="84" height="84" viewBox="0 0 84 84">
  <defs>
    <clipPath id="clip-path">
      <rect id="Rectangle_464315" data-name="Rectangle 464315" width="62.218" height="62.197" fill="#12263f"/>
    </clipPath>
  </defs>
  <g id="img41" transform="translate(-179.734 -5520.842)">
    <path id="Path_1274448" data-name="Path 1274448" d="M0,0H84V84H0Z" transform="translate(179.734 5520.842)" fill="#ffde92"/>
    <g id="Group_1211463" data-name="Group 1211463" transform="translate(190.626 5531.743)">
      <path id="Path_1273888" data-name="Path 1273888" d="M118,70.055h-8.023V60.011H118Zm-2.006-8.037h-4.012v6.032h4.012Z" transform="translate(-87.913 -47.974)" fill="#12263f"/>
      <rect id="Rectangle_464303" data-name="Rectangle 464303" width="16.047" height="2.02" transform="translate(4.006 16.049)" fill="#12263f"/>
      <rect id="Rectangle_464304" data-name="Rectangle 464304" width="10.029" height="2.02" transform="translate(10.024 12.037)" fill="#12263f"/>
      <rect id="Rectangle_464305" data-name="Rectangle 464305" width="6.018" height="2.02" transform="translate(4.006 20.061)" fill="#12263f"/>
      <rect id="Rectangle_464306" data-name="Rectangle 464306" width="4.012" height="2.02" transform="translate(4.006 12.037)" fill="#12263f"/>
      <rect id="Rectangle_464307" data-name="Rectangle 464307" width="4.012" height="2.02" transform="translate(16.041 20.061)" fill="#12263f"/>
      <rect id="Rectangle_464308" data-name="Rectangle 464308" width="2.006" height="2.02" transform="translate(12.03 20.061)" fill="#12263f"/>
      <rect id="Rectangle_464309" data-name="Rectangle 464309" width="2.006" height="2.02" transform="translate(4.006 4.014)" fill="#12263f"/>
      <rect id="Rectangle_464310" data-name="Rectangle 464310" width="2.006" height="2.02" transform="translate(8.018 4.014)" fill="#12263f"/>
      <rect id="Rectangle_464311" data-name="Rectangle 464311" width="2.006" height="2.02" transform="translate(12.03 4.014)" fill="#12263f"/>
      <g id="Group_1211462" data-name="Group 1211462">
        <g id="Group_1211461" data-name="Group 1211461" clip-path="url(#clip-path)">
          <path id="Path_1273889" data-name="Path 1273889" d="M54.174,37.131l-.032,14.025a4.967,4.967,0,0,1-5,5.007l-12.032.016.008,4.007,5.993-.006a15.257,15.257,0,0,1-.019,2.014l-25.99,0a10.419,10.419,0,0,1-.04-2.016l5.992.006.008-4.006-12.032-.018a4.96,4.96,0,0,1-5-5.021L6.01,26.095l-3.022-.013A2.975,2.975,0,0,1,0,23.061L0,3.023A3.014,3.014,0,0,1,3.22,0L31.267.038c1.872,0,2.852,1.683,2.849,3.373L34.09,18.064l5.738-.051a3.213,3.213,0,0,1,4.023-1.09,1.452,1.452,0,0,0,1.825-.72,3.361,3.361,0,0,1,3.462-2.2A3.357,3.357,0,0,1,52.6,16.2a1.461,1.461,0,0,0,1.813.728,3.334,3.334,0,0,1,3.972.913c.954.992,1.64,2.265,1,3.658a1.554,1.554,0,0,0,.649,2.12,3.39,3.39,0,0,1,2.19,3.454,3.478,3.478,0,0,1-2.32,3.546c-.757.289-.809,1.4-.522,2.031.644,1.405-.035,2.669-1,3.664a3.334,3.334,0,0,1-4.2.814m-22.1-29.1.015-5.025a1.02,1.02,0,0,0-1.027-.993l-28.03,0a.975.975,0,0,0-1.012.994l0,5.028Zm-.941,16.049c.642-.152.946-.5.946-1.029l.013-13.014H2l.013,13.014a1.033,1.033,0,0,0,1.024,1.026Zm19.24,13.663c1.05-2.417,3.142-3.1,5.473-2.257.606.219,1.81-1.13,1.7-1.775-.233-1.107-.647-2.223.016-3.478a5.474,5.474,0,0,1,2.27-1.956c.558-.337.5-2.04-.02-2.4-1.011-.7-1.94-1.148-2.326-2.1a4.973,4.973,0,0,1,.061-3.395c.14-.626-1.093-1.837-1.713-1.709-1.3.269-2.227.617-3.543-.018A5.528,5.528,0,0,1,50.348,16.4a1.963,1.963,0,0,0-2.42,0,5.392,5.392,0,0,1-2.082,2.325c-1.253.539-2.21.185-3.375-.047-.657-.131-1.892,1.074-1.744,1.7.305,1.3.605,2.235-.018,3.539a5.327,5.327,0,0,1-2.256,1.948c-.552.338-.51,2.03.012,2.4,1.013.722,1.92,1.185,2.322,2.095.56,1.27.16,2.189-.059,3.381-.118.643,1.078,1.882,1.716,1.734,1.3-.3,2.227-.6,3.546.018a5.628,5.628,0,0,1,1.921,2.237c.341.55,2.2.6,2.461.005M39.04,22.018a7.479,7.479,0,0,1-.422-1.916l-4.512-.043a15.509,15.509,0,0,0,.019,2.026Zm.854,14.3a3.206,3.206,0,0,1-1-3.655,1.546,1.546,0,0,0-.648-2.118,3.35,3.35,0,0,1-2.174-3.469,3.643,3.643,0,0,1,1.193-2.937,29.064,29.064,0,0,0-3.353-.035,3.143,3.143,0,0,1-3.038,1.99l-18.848,0,0,20.067,36.089,0,.024-6.053A3.432,3.432,0,0,1,45.61,37.85c-.858-2.06-2.855,1.357-5.716-1.535M29.263,48.18l-17.035-.029a2.03,2.03,0,0,1-2.2-2.022l-.008-20.022-2.009,0,.011,25.034a2.986,2.986,0,0,0,3.013,3.017l18.3-.012a3.246,3.246,0,0,1-2.265-3.092,3.286,3.286,0,0,1,2.187-2.875m1.673,0a3.2,3.2,0,0,1,2.135,3.26,3.275,3.275,0,0,1-2.244,2.7l18.1.041a3.043,3.043,0,0,0,3.212-3.03l-.021-12.205a4.315,4.315,0,0,1-1.975,1.169l.009,5.835a2.051,2.051,0,0,1-2.035,2.191Zm.132,2.972a.986.986,0,1,0-.986.986.986.986,0,0,0,.986-.986m-6,9.041H35.1V56.166H25.068Z" transform="translate(0 0)" fill="#12263f"/>
          <rect id="Rectangle_464312" data-name="Rectangle 464312" width="20.059" height="2.02" transform="translate(14.035 28.084)" fill="#12263f"/>
          <rect id="Rectangle_464313" data-name="Rectangle 464313" width="20.059" height="2.02" transform="translate(14.035 32.096)" fill="#12263f"/>
          <path id="Path_1273890" data-name="Path 1273890" d="M68.231,186.161c-.668-.232-.971-.785-1.483-1.308l3.187-3.322L66.779,178.3A3.323,3.323,0,0,1,68.19,176.9l4.618,4.634Z" transform="translate(-53.359 -141.414)" fill="#12263f"/>
          <rect id="Rectangle_464314" data-name="Rectangle 464314" width="8.023" height="2.02" transform="translate(20.053 42.125)" fill="#12263f"/>
          <path id="Path_1273891" data-name="Path 1273891" d="M224.038,107.066a7.013,7.013,0,1,1-7.013-7.012,7.012,7.012,0,0,1,7.013,7.012m-2.005,0a5.008,5.008,0,1,0-5.008,5.008,5.008,5.008,0,0,0,5.008-5.008" transform="translate(-167.887 -79.985)" fill="#12263f"/>
          <path id="Path_1273892" data-name="Path 1273892" d="M236,123.042a3,3,0,1,1-3-3,3,3,0,0,1,3,3m-2.018,0a.986.986,0,1,0-.986.986.986.986,0,0,0,.986-.986" transform="translate(-183.862 -95.96)" fill="#12263f"/>
        </g>
      </g>
    </g>
  </g>
</svg>
