<svg xmlns="http://www.w3.org/2000/svg" xmlns:xlink="http://www.w3.org/1999/xlink" width="150.004" height="150.005" viewBox="0 0 150.004 150.005">
  <defs>
    <clipPath id="clip-path">
      <rect id="Rectangle_464493" data-name="Rectangle 464493" width="74.393" height="74.406" fill="#12263f"/>
    </clipPath>
  </defs>
  <g id="img14" transform="translate(-309.035 -8564)">
    <circle id="Ellipse_13890" data-name="Ellipse 13890" cx="75.002" cy="75.002" r="75.002" transform="translate(459.039 8714.004) rotate(180)" fill="#7dbfff"/>
    <path id="Intersection_3" data-name="Intersection 3" d="M21489.994,11830.457l123.867-71.069a75.008,75.008,0,0,1-123.867,71.069Z" transform="translate(-21156.453 -3136)" fill="#19538d"/>
    <path id="Path_1032945" data-name="Path 1032945" d="M62.939,0A62.939,62.939,0,1,1,0,62.939,62.939,62.939,0,0,1,62.939,0Z" transform="translate(446.977 8701.914) rotate(180)" fill="#d5f4f8"/>
    <path id="Intersection_2" data-name="Intersection 2" d="M0,62.942a62.945,62.945,0,0,1,125.248-8.963L24.207,112.556A62.844,62.844,0,0,1,0,62.942Z" transform="translate(321.1 8576.035)" fill="#fff"/>
    <g id="Group_1211846" data-name="Group 1211846" transform="translate(339.842 8597.21)">
      <g id="Group_1211845" data-name="Group 1211845" transform="translate(7 2)" clip-path="url(#clip-path)">
        <path id="Path_1274666" data-name="Path 1274666" d="M38.29,87.489,38.2,91.434l8.377.006a.976.976,0,0,1,.954,1l.008,13.932a1.035,1.035,0,0,1-1.062,1.11l-18.569,0a1.023,1.023,0,0,1-1.061-1.114l.007-13.929a.963.963,0,0,1,.957-.99l8.356-.032-.038-3.9A5.715,5.715,0,0,1,31.6,83.014L11.374,83l.013,8.443,8.245-.01a1.074,1.074,0,0,1,1.093,1.089l-.013,14a1.059,1.059,0,0,1-1.132.98H1.151a1.061,1.061,0,0,1-1.139-.976L0,92.518A1.056,1.056,0,0,1,1.1,91.45l8.2,0,.007-9.362a1.194,1.194,0,0,1,1-1.187l21.326-.012a5.7,5.7,0,0,1,4.541-4.5l.026-5.111-16.556-.008a.969.969,0,0,1-.961-.881.982.982,0,0,1,.957-1.086,2.507,2.507,0,0,0,2.525-2.494l.023-22.252a1.032,1.032,0,0,1,1.09-.967l34.826,0a1.054,1.054,0,0,1,1.113,1.053l.023,20.771a5.713,5.713,0,0,1-4.735,5.8,21.224,21.224,0,0,1-4.514.036c-.477-.027-.583-.592-.6-.842-.024-.338.1-1.034.6-1.042l3.6-.053a3.673,3.673,0,0,0,3.532-3.379l.046-20.24H24.2l0,21.451a5.269,5.269,0,0,1-.683,2.123l23.05-.007a1.006,1.006,0,0,1,.967.921.954.954,0,0,1-.944,1.085l-8.364.018-.006,5.059a5.827,5.827,0,0,1,4.571,4.547h21.1a1.173,1.173,0,0,1,1.192,1.2l.015,9.361,8.2-.008a1.059,1.059,0,0,1,1.1,1.076l-.011,14.01a1.007,1.007,0,0,1-.948.947l-18.615.014a1.044,1.044,0,0,1-1.134-1.013L53.668,92.52a1.108,1.108,0,0,1,.877-1.084l8.458,0L63,83l-20.23.007a5.607,5.607,0,0,1-4.479,4.483m-1.581-9.136a3.632,3.632,0,0,0-3.1,4.263,3.645,3.645,0,1,0,3.1-4.263m-18.04,27.056-.009-11.956H2.064v11.974Zm26.851-.026-.006-11.919-16.591-.015,0,11.984Zm26.818.025L72.331,93.45l-16.592,0v11.976Z" transform="translate(0 -33.098)" fill="#12263f"/>
        <path id="Path_1274667" data-name="Path 1274667" d="M76.448,5.535l-2.48-3.48-8.873-.012,0,31.745c0,1.445,1.5,1.884,1.066,2.876-.141.322-.7.857-1.17.6a3.834,3.834,0,0,1-1.938-3.379L63.039,1.011A1.021,1.021,0,0,1,63.984,0L75.02.015l2.425,3.479,23.96,0a.991.991,0,0,1,1.014.964l.006,3.6a1,1,0,0,1-1.1.966,1.059,1.059,0,0,1-.933-1.191l0-2.279Z" transform="translate(-47.869 0)" fill="#12263f"/>
        <path id="Path_1274668" data-name="Path 1274668" d="M139.561,81.069a7.785,7.785,0,0,1-3.979.068c-.668-.353-.673-1.534-.67-2.174-.841.007-1.259,1.074-2.269.946-.482-.061-2.163-1.794-2.976-2.948a8.906,8.906,0,0,1,1.177-2.115c-.738-.121-1.865-.04-2.273-.67a10.184,10.184,0,0,1-.026-4.06c.513-.838,1.921-.462,2.167-.794.215-.29-1.488-1.7-.845-2.381l2.232-2.359a1.07,1.07,0,0,1,1.36-.11l1.41.922c.067-.659.021-1.815.6-2.264a9.315,9.315,0,0,1,4.173-.008c.581.315.555,1.448.581,2.062.935.1,1.925-1.625,2.794-.625.724.833,1.807,1.493,2.292,2.514.359.756-.581,1.593-1.065,2.214.859.3,1.6.135,2.376.68.136,1.264.425,2.961-.11,4.2-.3.7-1.607.52-2.2.724.238.623,1.4,1.439,1,2.2a8.87,8.87,0,0,1-2.731,2.74c-.742.44-1.567-.654-2.211-.956-.291.521.006,1.873-.811,2.2m2.5-3.605c.321.1,1.1-.731.88-.953a1.94,1.94,0,0,1-.5-2.567c.933-1.76,2.2-.593,2.351-1.638.226-1.524-1.651-.148-2.446-2.288-.623-1.679.907-2.155.6-2.635-1.039-1.628-1.118.578-3.175-.02a2.02,2.02,0,0,1-1.545-2.185c-.019-.358-1.326-.372-1.33-.013a1.931,1.931,0,0,1-1.414,2.134c-2.016.669-2.189-1.267-3.035-.3-.384.439-.215.845.149,1.232.684.724.277,1.492-.023,2.216-.317.765-1.141.922-2,1.02-.279.137-.274,1.09,0,1.244.842.131,1.664.235,1.995.995.307.705.717,1.527.055,2.229-.433.459-.574.913-.036,1.343.385.308.68.145,1.191-.266a2.074,2.074,0,0,1,3,1.164c.07.5-.02.97.4,1.059,1.725.367.452-1.241,2.09-2.167,1.051-.594,1.8-.364,2.792.4" transform="translate(-97.466 -47.755)" fill="#12263f"/>
        <path id="Path_1274669" data-name="Path 1274669" d="M86.772,20.351c.146,1.249-1.349,1.289-3.367,1.129a1.055,1.055,0,0,1-1-.92,1,1,0,0,1,1-1.084l2.4,0a.957.957,0,0,1,.964.878" transform="translate(-62.573 -14.787)" fill="#12263f"/>
        <path id="Path_1274670" data-name="Path 1274670" d="M29.835,263.911l-9.323-.016a1.007,1.007,0,0,1-1.03-1.033.962.962,0,0,1,1.025-1.01l9.3,0a.983.983,0,0,1,1.055,1,1.031,1.031,0,0,1-1.027,1.053" transform="translate(-14.794 -198.84)" fill="#12263f"/>
        <path id="Path_1274671" data-name="Path 1274671" d="M25.025,283.45l-4.576-.022a1.013,1.013,0,0,1-.987-.885.953.953,0,0,1,.983-1.086l5.017.039c.576,0,.724.691.684,1.008a1.017,1.017,0,0,1-1.12.945" transform="translate(-14.773 -213.727)" fill="#12263f"/>
        <path id="Path_1274672" data-name="Path 1274672" d="M141.471,263.84l-9.425.054a1.121,1.121,0,0,1-1.125-1.056,1.058,1.058,0,0,1,1.127-1.019l9.339.013a1.062,1.062,0,0,1,.924.826c.1.334-.2,1.178-.841,1.182" transform="translate(-99.416 -198.814)" fill="#12263f"/>
        <path id="Path_1274673" data-name="Path 1274673" d="M136.7,283.373l-4.683.044a1.032,1.032,0,0,1-1.107-.933.935.935,0,0,1,.872-1.066l4.819-.011a.985.985,0,0,1,.1,1.966" transform="translate(-99.406 -213.689)" fill="#12263f"/>
        <path id="Path_1274674" data-name="Path 1274674" d="M252.7,263.92l-9.207-.024a1.023,1.023,0,0,1-1.038-1.031.973.973,0,0,1,1.033-1.006l9.3,0a.972.972,0,0,1,1.047,1,1.043,1.043,0,0,1-1.139,1.059" transform="translate(-184.107 -198.842)" fill="#12263f"/>
        <path id="Path_1274675" data-name="Path 1274675" d="M248.107,283.349l-4.7-.007a1.048,1.048,0,0,1-1-.892.973.973,0,0,1,.992-1.091l4.583-.027a1.018,1.018,0,0,1,1.142.909.983.983,0,0,1-1.023,1.108" transform="translate(-184.072 -213.631)" fill="#12263f"/>
        <path id="Path_1274676" data-name="Path 1274676" d="M151.946,83.614a4.269,4.269,0,1,1-2.886,5.277,4.252,4.252,0,0,1,2.886-5.277m.93,1.912a2.16,2.16,0,0,0-1.907,2.591,2.249,2.249,0,0,0,2.5,1.812,2.221,2.221,0,1,0-.591-4.4" transform="translate(-113.057 -63.354)" fill="#12263f"/>
      </g>
    </g>
  </g>
</svg>
